<svg width="134" height="30" viewBox="0 0 134 30" fill="none" xmlns="http://www.w3.org/2000/svg">
<g clip-path="url(#clip0_3011_96757)">
<path fill-rule="evenodd" clip-rule="evenodd" d="M109.21 28.6318C109.211 28.9651 109.213 29.3016 109.213 29.6428C110.607 29.6428 111.992 29.6589 113.37 29.6748C116.564 29.7118 119.72 29.7483 122.869 29.5837C127.895 29.3335 131.291 26.5807 132.847 21.8402C134.375 17.144 134.375 12.3742 132.907 7.64856C131.854 4.23313 129.63 1.78933 126.116 0.685205C123.447 -0.15393 120.719 -0.198095 117.991 0.420215C112.238 1.73044 109.554 7.03025 109.302 12.6834C109.374 12.6881 109.447 12.6944 109.521 12.7008C109.676 12.714 109.834 12.7275 109.984 12.7275H114.773C114.861 12.3264 114.937 11.9317 115.013 11.5433L115.013 11.5432L115.013 11.5431L115.013 11.543L115.013 11.5429C115.167 10.7482 115.315 9.98004 115.544 9.23849C116.523 6.02916 118.703 4.51283 122.039 4.70422C124.263 4.83672 125.938 5.83778 127.006 7.94298C126.933 8.00138 126.861 8.05704 126.789 8.11204C126.626 8.23731 126.468 8.3592 126.324 8.50242C120.818 13.9251 115.312 19.3624 109.806 24.7997L109.805 24.8007L109.777 24.8287C109.54 25.079 109.258 25.4176 109.243 25.712C109.199 26.6804 109.204 27.6404 109.21 28.6291V28.6292V28.6293V28.6294V28.6295L109.21 28.6318ZM120.672 21.0387C123.2 18.571 125.71 16.1192 128.221 13.655C128.355 16.2019 128.325 18.8076 127.302 21.3103C126.309 23.7541 124.426 24.9612 121.787 25.0201C120.644 25.0397 119.507 25.0333 118.356 25.0267H118.355H118.355L118.355 25.0267C117.773 25.0234 117.189 25.0201 116.597 25.0201C117.952 23.6956 119.299 22.38 120.642 21.0688L120.647 21.0632L120.668 21.0432L120.672 21.0387ZM101.906 5.89785C103.453 5.89785 104.708 4.65212 104.708 3.11545C104.708 1.57877 103.453 0.333043 101.906 0.333043C100.358 0.333043 99.1035 1.57877 99.1035 3.11545C99.1035 4.65212 100.358 5.89785 101.906 5.89785ZM99.1035 10.2398H104.634V29.5841H99.1035V10.2398ZM82.5923 25.0199H91.2213V29.6572H70.7158V25.0788H76.8393V24.1219C76.8393 22.3007 76.8377 20.4812 76.836 18.6623V18.6607V18.659V18.6574C76.8328 15.0228 76.8295 11.3903 76.8393 7.75136C76.8543 4.39481 78.5446 1.89214 81.4803 0.920507C82.0212 0.73671 82.6034 0.647959 83.1609 0.562974L83.2298 0.552465C83.5404 0.508398 83.8511 0.513798 84.168 0.519306C84.2746 0.521158 84.3819 0.523023 84.4901 0.523023H93.2528V5.17507H92.4223C91.6362 5.17507 90.8517 5.17344 90.0677 5.1718L90.0672 5.1718C88.5005 5.16853 86.936 5.16526 85.3648 5.17507C83.6746 5.18979 82.5328 6.19088 82.5181 7.82496C82.4958 12.0476 82.4986 16.2703 82.5014 20.493C82.5024 21.9087 82.5033 23.3244 82.5033 24.7402C82.5085 24.761 82.5175 24.7837 82.5282 24.8108C82.5477 24.8603 82.5731 24.9247 82.5923 25.0199ZM66.8303 0.524427H44.2491V5.16175H66.8303V0.524427ZM44.2719 8.43287H49.8914L49.8909 8.69456C49.8886 9.7301 49.8801 13.5228 49.9061 18.5466C49.9061 19.5183 49.9654 20.5194 50.1286 21.4763C50.4994 23.6403 51.7744 24.8475 53.9686 25.2008C54.5026 25.2892 55.0659 25.3333 55.5996 25.3333C59.2619 25.348 61.0709 23.6551 61.2339 20.0482C61.2975 18.6497 61.2854 17.2436 61.2733 15.8354V15.8351V15.8348V15.8345C61.2685 15.2715 61.2636 14.7082 61.2636 14.1449V8.43287H66.8534C66.8681 8.62425 66.9126 13.1732 66.8979 19.2091C66.8979 20.9021 66.6309 22.5509 65.9636 24.1261C64.4514 27.6446 61.6046 29.3375 57.8979 29.8382C55.8369 30.118 53.7759 30.0442 51.7446 29.5438C47.7119 28.5573 45.0281 25.6572 44.4499 21.5646C44.3164 20.6224 44.2424 19.6655 44.2424 18.7086C44.2274 12.8641 44.2571 8.69785 44.2719 8.43287ZM33.8855 25.0211H39.8012V29.629H28.2957V5.16156H24.0552V0.553675H33.8855V25.0211ZM4.00922 0.584442C2.67676 0.606805 1.3405 0.629232 0 0.629232V29.6456H5.61937V21.4604C5.77694 21.4604 5.91962 21.4622 6.05336 21.464C6.29714 21.4671 6.51118 21.4699 6.7314 21.4604C7.38078 21.4471 8.0315 21.4458 8.68235 21.4445C10.2011 21.4414 11.7206 21.4383 13.2255 21.2837C17.1102 20.8715 20.0904 18.1627 20.6538 14.4676C20.9355 12.6127 20.9207 10.6841 20.7872 8.81448C20.4759 4.32437 17.4512 1.012 12.9142 0.688119C9.96167 0.48454 6.99499 0.534331 4.00922 0.584442ZM7.5609 16.7472C6.92113 16.7336 6.27904 16.72 5.6342 16.72V5.31073C6.30449 5.31073 6.97478 5.29718 7.64424 5.28364C9.18125 5.25257 10.7139 5.22158 12.2321 5.35489C13.8928 5.50209 15.0344 6.97426 15.1086 8.65254C15.1679 10.0953 15.153 11.5527 15.1234 12.9954C15.0789 15.0418 13.9521 16.4845 11.9208 16.6758C10.4763 16.809 9.0247 16.7782 7.5609 16.7472Z" fill="white"/>
</g>
<defs>
<clipPath id="clip0_3011_96757">
<rect width="134" height="30" fill="white"/>
</clipPath>
</defs>
</svg>
